<?xml version="1.0" encoding="utf-8"?>
<!-- Generator: Adobe Illustrator 24.0.0, SVG Export Plug-In . SVG Version: 6.00 Build 0)  -->
<svg version="1.1" id="Layer_1" xmlns="http://www.w3.org/2000/svg" xmlns:xlink="http://www.w3.org/1999/xlink" x="0px" y="0px"
	 viewBox="0 0 640 640" style="enable-background:new 0 0 640 640;" xml:space="preserve">
<style type="text/css">
	.st0{fill:#666666;}
</style>
<path class="st0" d="M585,600h-25V30c0-16.6-13.4-30-30-30H110C93.4,0,80,13.4,80,30v570H55c-8.3,0-15,6.7-15,15v25h560v-25
	C600,606.7,593.3,600,585,600z M200,95c0-8.3,6.7-15,15-15h50c8.3,0,15,6.7,15,15v50c0,8.3-6.7,15-15,15h-50c-8.3,0-15-6.7-15-15V95
	z M200,215c0-8.3,6.7-15,15-15h50c8.3,0,15,6.7,15,15v50c0,8.3-6.7,15-15,15h-50c-8.3,0-15-6.7-15-15V215z M265,400h-50
	c-8.3,0-15-6.7-15-15v-50c0-8.3,6.7-15,15-15h50c8.3,0,15,6.7,15,15v50C280,393.3,273.3,400,265,400z M360,600h-80V495
	c0-8.3,6.7-15,15-15h50c8.3,0,15,6.7,15,15V600z M440,385c0,8.3-6.7,15-15,15h-50c-8.3,0-15-6.7-15-15v-50c0-8.3,6.7-15,15-15h50
	c8.3,0,15,6.7,15,15V385z M440,265c0,8.3-6.7,15-15,15h-50c-8.3,0-15-6.7-15-15v-50c0-8.3,6.7-15,15-15h50c8.3,0,15,6.7,15,15V265z
	 M440,145c0,8.3-6.7,15-15,15h-50c-8.3,0-15-6.7-15-15V95c0-8.3,6.7-15,15-15h50c8.3,0,15,6.7,15,15V145z"/>
</svg>
