<?xml version="1.0" encoding="utf-8"?>
<!-- Generator: Adobe Illustrator 26.0.1, SVG Export Plug-In . SVG Version: 6.00 Build 0)  -->
<svg version="1.1" id="Layer_1" xmlns="http://www.w3.org/2000/svg" xmlns:xlink="http://www.w3.org/1999/xlink" x="0px" y="0px"
	 viewBox="0 0 1073.5 686.7" style="enable-background:new 0 0 1073.5 686.7;" xml:space="preserve">
<style type="text/css">
	.st0{fill:#666666;}
</style>
<g>
	<path class="st0" d="M712.5,270.6c0,0-6.6,20.4-7.6,23.2c-1,2.7-7.4,11.2-6,11.2c1.3,0,15.3,6.5,15.3,6.5l54.2,16.8l-0.8,25.5
		c-4.8,0.7-23.5,13.1-26.2,19.2c-1.8,4-5.7,11.1-9.6,16.1c49.4,19.9,78.3,49.1,79.4,81.7c0.8,5.8,30.8,112.7,32.5,136.8h228.1
		c0.2-1-6.9-139.3-6.9-140.3c0,0-13.1-33.3-33.8-36.7c-20.8-3.4-47.4-10.7-58.6-19.1c-6.5-4.9-27.7-13.5-37.6-17.1
		c-4.6-1.6-12.4-15.2-15.2-21.4c-2.7-6.1-21.5-18.5-26.2-19.2l-0.8-25.6l54.2-16.8c0,0,14-6.5,15.3-6.5c1.4,0-6.5-10.3-7.5-13
		c-1-2.7-6.1-21.3-6.1-21.3s18.3,22.4,27.6,26.5c0,0-18.2-34.2-23.6-53.3c-5.5-19.1-9-48.9-9-51.6c0-2.7-11.2-82.7-17.4-96
		c-6.1-13.3-14.4-31.3-28.7-40.2c-14.2-8.8-35.3-21.4-65.6-23.1c-0.4,0-0.9,0-1.3-0.1c-0.4,0-0.9,0-1.4,0.1
		c-30.3,1.7-51.4,14.3-65.6,23.1c-14.2,8.9-22.5,26.9-28.7,40.2c-6.1,13.3-17.4,93.2-17.4,96c0,2.7-3.2,33.7-8.6,52.8
		c-5.4,19.1-24,52.1-24,52.1C694.3,293,712.5,270.6,712.5,270.6z"/>
</g>
<g>
	<path class="st0" d="M240.9,492.1v-1.4l0.1-1.4c14.8-63.7,91.5-94.1,133.4-112.4c0.1,0-0.1,0,0,0c-25.4-11.6-38.9-20.3-45.1-21.7
		c-2.6-5.2-8.1-44.1-8.1-44.1s30.6-27,37.4-78.8c0,0,15.1,8.3,16-23.2c0.7-24.3,4.9-33.7-11.6-40.8c0,0,1.2-16.8,1.7-31.7
		c0.8-22.1,4.9-53.1-33.3-78c-5.4-3.5-33.5-19.1-33.6-19.1c-10-6.1-22.7-9.9-22.7-9.9l0.4,9.1c-0.7-0.7-1.4-1.4-2-2
		c-2.5-2.6-3.9-12.6-3.7-16.6c0.5-7.1,0.5-7.1,0.5-7.1c-18.1,13.5-30.6,30.9-30.6,30.9l1.6-16.9c0,0-3.4,5.2-44.8,31
		c-40.6,25.4-33.9,62.8-32.8,84.9c0.7,14.9,2.2,25.2,2.2,25.2c-16.5,7.1-7.8,17.2-7.4,41.5c0.5,33.6,17.4,27.6,17.4,27.6
		c7.8,45.7,31.8,73.6,31.8,73.6s-6.8,39.2-9.4,44.1c-7.5,1.7-24.8,13.6-61,28.7c-53.4,22.2-36.7,9.3-80.2,31.1
		C-11.5,449.4,2.1,592.8,2.1,592.8h216.6L240.9,492.1z"/>
</g>
<g>
	<path class="st0" d="M831.2,686.7c0-40.9-46.2-213.8-46.2-213.8c0-25.3-33.2-54.1-98.7-70.9c-34-8.7-62.5-28.3-62.5-28.3
		c-4.2-2.4-3.6-24.5-3.6-24.5l-21.1-3.2c0-1.8-1.8-28.3-1.8-28.3c25.2-8.4,22.6-58.1,22.6-58.1c16,8.8,26.5-30.4,26.5-30.4
		c19-54.6-9.4-51.3-9.4-51.3c9-40.9,0-100.6,0-100.6C624.4-33.2,434.4-3.2,456.9,32.9C401.4,22.7,414,148.3,414,148.3l12,32.5
		c-23.7,15.2-7.2,33.7-6.4,54.9c1.2,31.3,20.4,24.8,20.4,24.8c1.2,51.7,26.8,58.5,26.8,58.5c4.8,32.5,1.8,26.9,1.8,26.9l-22.8,2.7
		c1,8.2-1.8,22-1.8,22c-26.9,11.9-32.6,18.9-59.3,30.5c-51.6,22.4-107.6,51.6-117.6,90.9c-10,39.3-39.5,194.5-39.5,194.5
		L831.2,686.7L831.2,686.7L831.2,686.7z"/>
</g>
</svg>
