<?xml version="1.0" encoding="utf-8"?>
<!-- Generator: Adobe Illustrator 24.0.0, SVG Export Plug-In . SVG Version: 6.00 Build 0)  -->
<svg version="1.1" id="Layer_1" xmlns="http://www.w3.org/2000/svg" xmlns:xlink="http://www.w3.org/1999/xlink" x="0px" y="0px"
	 viewBox="0 0 32 32" style="enable-background:new 0 0 32 32;" xml:space="preserve">
<style type="text/css">
	.st0{fill:#666666;}
</style>
<path class="st0" d="M4,0v2.7h2.7V8c0,3.4,1.8,6.4,4.5,8c-2.7,1.6-4.5,4.6-4.5,8v5.3H4V32h24v-2.7h-2.7V24c0-3.4-1.8-6.4-4.5-8
	c2.7-1.6,4.5-4.6,4.5-8V2.7H28V0H4z M9.3,2.7h13.3V8c0,3.7-3,6.7-6.7,6.7s-6.7-3-6.7-6.7V2.7z M10.7,5.3V8c0,2.9,2.4,5.3,5.3,5.3
	s5.3-2.4,5.3-5.3V5.3H10.7z M16,17.3c3.7,0,6.7,3,6.7,6.7v5.3H9.3V24C9.3,20.3,12.3,17.3,16,17.3z"/>
</svg>
