<?xml version="1.0" encoding="utf-8"?>
<!-- Generator: Adobe Illustrator 26.0.1, SVG Export Plug-In . SVG Version: 6.00 Build 0)  -->
<svg version="1.1" id="Layer_1" xmlns="http://www.w3.org/2000/svg" xmlns:xlink="http://www.w3.org/1999/xlink" x="0px" y="0px"
	 viewBox="0 0 1073.5 663.4" style="enable-background:new 0 0 1073.5 663.4;" xml:space="preserve">
<style type="text/css">
	.st0{fill:#666666;}
</style>
<path class="st0" d="M827.1,81.4L957,328.5c0,0-14.3,31.6-47.8,67.6c-24.4,26.1-55.9,48.7-55.9,48.7l-239-265.1
	c0,0-9.9-10.8-26.1-12.6c-12-1.3-34.3,7.2-34.3,7.2l-135.3,74c0,0-31.6,22-54.1-9.9c-21.6-30.7,17.1-57.7,17.1-57.7
	s121.8-100.1,202-137.1c40-18.4,76.7-11.7,101.9,1.8s65.9,42,85.7,49.6C794.6,103.9,827.1,81.4,827.1,81.4z"/>
<path class="st0" d="M1076.3,282.3l-143.2-267c-3.8-7-12.5-9.7-19.5-5.9l-55.4,29.2c-7,3.8-9.7,12.5-5.9,19.6l143.3,267
	c3.8,7,12.5,9.7,19.5,5.9l55.4-29.2C1077.5,298,1080.1,289.3,1076.3,282.3z M1021,285.7c-11.2,0-20.3-9.1-20.3-20.3
	s9.1-20.3,20.3-20.3c11.2,0,20.3,9.1,20.3,20.3C1041.3,276.6,1032.2,285.7,1021,285.7z"/>
<path class="st0" d="M252.9,429.6c-0.9-0.5-21.7-12-58.4-44.9c-21.3-19.1-44.6-52.8-45.5-54.3c-3-4.4-3.4-10.2-0.8-14.9L276.8,73.7
	c3.4-6.4,11.2-9.3,18-6.7l0,0c0,0,6.9,2.5,22.8,5.6c16.3,3.1,28.9-0.6,49.7-6.7c4.1-1.2,8.4-2.5,13.1-3.8
	c12.2-3.4,24.8-10.5,38.2-18c15.9-8.9,32.3-18,50.5-22.7c40.1-10.3,64.3,19,65.3,20.2L512,59.9c-0.6-0.7-14-16.1-35.8-10.6
	c-14.7,3.8-29.4,12-43.7,20c-14.3,8-29,16.2-44.4,20.5c-4.5,1.3-8.7,2.5-12.7,3.7c-22.4,6.6-40.2,11.9-63.3,7.4
	c-6.2-1.2-11.3-2.3-15.3-3.4l-119,223.5c7.6,10.5,22.7,30.1,36,42.1c34.1,30.7,52.7,40.9,52.9,41L252.9,429.6z"/>
<path class="st0" d="M648.5,647.7c-18.3,0-30.5-10.6-31.9-11.8l9.7-10.7l9.5-10.8c3.8,3.2,17.6,12,36.1-9.4
	c18.9-21.9,4.4-44.7,4.3-44.9l24.1-15.8c9.3,14.1,19.8,49-6.6,79.6c-12.8,14.9-27.1,22.9-42.4,23.8
	C650.4,647.7,649.4,647.7,648.5,647.7z"/>
<path class="st0" d="M735,588.6c-13.8,0-25.1-5.3-31.2-8c-13.6-6.3-34.7-28.7-38.8-33.1c-5.4-5.8-5.1-15,0.8-20.4
	c5.8-5.4,15-5.1,20.4,0.8c9.9,10.7,24.1,23.9,29.7,26.5c13,6,25,9.8,39.8-4.5c18.2-17.6,2.6-41.4-0.2-45.3l-83.3-88.7
	c-5.4-5.8-5.2-14.9,0.6-20.4c5.8-5.5,14.9-5.2,20.4,0.6l83.9,89.3c0.4,0.4,0.7,0.8,1,1.2c12.3,16.3,27.7,54.8-2.4,84
	C761.6,584.5,747.3,588.6,735,588.6z"/>
<path class="st0" d="M822.8,540.7c-21,0-38.1-9.9-46.3-17.8l-44.3-43.4l20.2-20.6l44.2,43.3c2,1.8,22.2,19.3,49.3,2.6
	c11.2-7,18.1-14.7,19.8-22.2c1.7-7.4-1.9-13.2-2-13.4l23.9-16.2c1.1,1.6,10.5,15.9,6.5,35.2c-3.3,15.9-14.4,29.7-33,41.2
	C847.7,537.6,834.6,540.7,822.8,540.7z"/>
<path class="st0" d="M325.3,488.5c-14.6,14.6-38.3,14.6-52.9,0l0,0c-14.6-14.6-14.6-38.3,0-52.9l17.9-17.9
	c14.6-14.6,38.3-14.6,52.9,0l0,0c14.6,14.6,14.6,38.3,0,52.9L325.3,488.5z"/>
<path class="st0" d="M398.3,548.6c-14.6,14.6-38.3,14.6-52.9,0l0,0c-14.6-14.6-14.6-38.3,0-52.9l58.7-58.7
	c14.6-14.6,38.3-14.6,52.9,0l0,0c14.6,14.6,14.6,38.3,0,52.9L398.3,548.6z"/>
<path class="st0" d="M482.2,605.8c-14.6,14.6-38.3,14.6-52.9,0l0,0c-14.6-14.6-14.6-38.3,0-52.9l74.4-74.5
	c14.6-14.6,38.3-14.6,52.9,0l0,0c14.6,14.6,14.6,38.3,0,52.9L482.2,605.8z"/>
<path class="st0" d="M569.1,653.8c-14.6,14.6-38.3,14.6-52.9,0l0,0c-14.6-14.6-14.6-38.3,0-52.9l38.8-38.8
	c14.6-14.6,38.3-14.6,52.9,0l0,0c14.6,14.6,14.6,38.3,0,52.9L569.1,653.8z"/>
<circle class="st0" cx="69.4" cy="268.5" r="20.3"/>
<g>
	<path class="st0" d="M167.1,28.9c2.3,0,4.6,0.6,6.8,1.7l35.4,19.9c7,3.8,9.6,12.5,5.9,19.5L91.4,304.6c-2.6,4.8-7.6,7.6-12.7,7.6
		c-2.3,0-4.7-0.6-6.8-1.7l-35.4-19.9c-7-3.8-9.6-12.5-5.9-19.6L154.4,36.4C157,31.6,162,28.9,167.1,28.9 M167.1,0
		c-16,0-30.6,8.7-38.1,22.8l-0.1,0.1l-0.1,0.1L5.1,257.5c-5.4,10.1-6.6,21.8-3.3,32.9c3.3,11,10.6,20,20.7,25.5l35.2,19.8l0.2,0.1
		l0.2,0.1c6.3,3.4,13.4,5.2,20.5,5.2c15.9,0,30.6-8.7,38.1-22.8l0.1-0.1l0.1-0.1L240.7,83.6c11.2-20.9,3.4-47-17.4-58.4L188.1,5.4
		l-0.2-0.1l-0.2-0.1C181.4,1.8,174.3,0,167.1,0L167.1,0z"/>
</g>
<path class="st0" d="M691.8,569c-3.8,0-7.7-1.5-10.5-4.6l-83.9-89.3c-5.4-5.8-5.2-15,0.6-20.4c5.8-5.5,14.9-5.2,20.4,0.6l83.9,89.3
	c5.5,5.8,5.2,14.9-0.6,20.4C698.9,567.7,695.4,569,691.8,569z"/>
</svg>
