<?xml version="1.0" encoding="utf-8"?>
<!-- Generator: Adobe Illustrator 24.0.0, SVG Export Plug-In . SVG Version: 6.00 Build 0)  -->
<svg version="1.1" id="Layer_1" xmlns="http://www.w3.org/2000/svg" xmlns:xlink="http://www.w3.org/1999/xlink" x="0px" y="0px"
	 viewBox="0 0 48 48" style="enable-background:new 0 0 48 48;" xml:space="preserve">
<style type="text/css">
	.st0{fill:#666666;}
</style>
<path class="st0" d="M47.1,23.7l-6-2.1l-15.2,4.9c-1.3,0.4-2.7,0.4-4,0L6.7,21.6l-6,2.1c-0.6,0.2-0.6,1.1,0,1.3l21.2,6.9
	c1.3,0.4,2.7,0.4,4,0L47.1,25C47.7,24.8,47.7,24,47.1,23.7z"/>
<path class="st0" d="M47.1,30.5l-6-2.1l-15.2,4.9c-1.3,0.4-2.7,0.4-4,0L6.7,28.4l-6,2.1c-0.6,0.2-0.6,1.1,0,1.3l21.2,6.9
	c1.3,0.4,2.7,0.4,4,0l21.2-6.9C47.7,31.6,47.7,30.7,47.1,30.5z"/>
<path class="st0" d="M47.1,17l-21-7.5c-1.4-0.5-3-0.5-4.4,0L0.7,17c-0.6,0.2-0.6,1.1,0,1.3l5.9,1.9l15.2,4.9c1.3,0.4,2.7,0.4,4,0
	l15.2-4.9l5.9-1.9C47.7,18,47.7,17.2,47.1,17z"/>
</svg>
