<?xml version="1.0" encoding="utf-8"?>
<!-- Generator: Adobe Illustrator 24.0.0, SVG Export Plug-In . SVG Version: 6.00 Build 0)  -->
<svg version="1.1" id="Layer_1" xmlns="http://www.w3.org/2000/svg" xmlns:xlink="http://www.w3.org/1999/xlink" x="0px" y="0px"
	 viewBox="0 0 30 30" style="enable-background:new 0 0 30 30;" xml:space="preserve">
<style type="text/css">
	.st0{fill:#666666;}
</style>
<path class="st0" d="M0,2.5v5h5v-5H0z M11.3,3.8C10.6,3.8,10,4.3,10,5c0,0.7,0.5,1.3,1.2,1.3c0,0,0,0,0,0h17.5C29.4,6.3,30,5.7,30,5
	s-0.5-1.3-1.2-1.3c0,0,0,0,0,0H11.3z M0,12.5v5h5v-5H0z M11.3,13.8c-0.7,0-1.3,0.5-1.3,1.2c0,0.7,0.5,1.3,1.2,1.3c0,0,0,0,0,0h17.5
	c0.7,0,1.3-0.5,1.3-1.2c0-0.7-0.5-1.3-1.2-1.3c0,0,0,0,0,0H11.3z M0,22.5v5h5v-5H0z M11.3,23.7c-0.7,0-1.3,0.5-1.3,1.2
	c0,0.7,0.5,1.3,1.2,1.3c0,0,0,0,0,0h17.5c0.7,0,1.3-0.5,1.3-1.2c0-0.7-0.5-1.3-1.2-1.3c0,0,0,0,0,0H11.3z"/>
</svg>
