<?xml version="1.0" encoding="utf-8"?>
<!-- Generator: Adobe Illustrator 24.0.0, SVG Export Plug-In . SVG Version: 6.00 Build 0)  -->
<svg version="1.1" id="Layer_1" xmlns="http://www.w3.org/2000/svg" xmlns:xlink="http://www.w3.org/1999/xlink" x="0px" y="0px"
	 viewBox="0 0 48 48" style="enable-background:new 0 0 48 48;" xml:space="preserve">
<style type="text/css">
	.st0{fill:#666666;}
</style>
<path class="st0" d="M4.5,0.1c-0.4,0-0.9,0.2-1.2,0.6L0.7,3.3C0,4-0.1,5,0.4,5.8l5.1,8c0.8,1.2,2,2,3.4,2.2c0.2,0,0.4,0,0.5,0
	c1,0,2-0.3,2.8-1l9.7,9.7c-1.5,2.6-1.1,5.9,1.1,8.1l13.1,13c1.3,1.3,3,2,4.8,2h0c1.8,0,3.5-0.7,4.8-2c1.3-1.3,2-3,2-4.8
	c0-1.8-0.7-3.5-2-4.8l-13.1-13c-1.3-1.3-3-2-4.8-2h0c-1.1,0-2.1,0.3-3,0.7l-9.8-9.8c0.7-0.9,1.1-2.1,0.9-3.3
	c-0.2-1.4-0.9-2.7-2.1-3.4l-8-5.1C5.4,0.2,5,0.1,4.5,0.1z M34.8,0.1c-1.2-0.1-2.5,0-3.8,0.3c-5.5,1.2-9.8,5.7-10.7,11.3
	c-0.1,0.6-0.2,1.2-0.2,1.7l5.5,5.5c0.8-0.2,1.6-0.3,2.4-0.3c2.6,0,5,1,6.7,2.8l5.2,5.1c4.1-2,7.2-5.9,7.9-10.6
	c0.3-2.2,0.1-4.4-0.5-6.4C46.7,8.3,44.9,8,43.9,9L38,14.9c-1.4,1.4-3.7,1.5-5.1,0.1c-0.6-0.6-0.9-1.5-0.9-2.4c0-0.9,0.4-1.8,1-2.4
	l6.1-6.1c1-1,0.7-2.8-0.7-3.3C37.2,0.4,36,0.2,34.8,0.1z M15.9,22.4L2.1,36.3c-1.3,1.3-2,3-2,4.8c0,1.8,0.7,3.5,2,4.8
	c1.3,1.3,3,2,4.8,2h0c1.8,0,3.5-0.7,4.8-2L22,35.6l-0.7-0.7c-2.5-2.5-3.3-6.1-2.3-9.4L15.9,22.4z"/>
</svg>
