<?xml version="1.0" encoding="utf-8"?>
<!-- Generator: Adobe Illustrator 26.0.1, SVG Export Plug-In . SVG Version: 6.00 Build 0)  -->
<svg version="1.1" id="Layer_1" xmlns="http://www.w3.org/2000/svg" xmlns:xlink="http://www.w3.org/1999/xlink" x="0px" y="0px"
	 viewBox="0 0 663.4 663.4" style="enable-background:new 0 0 663.4 663.4;" xml:space="preserve">
<style type="text/css">
	.st0{fill:#666666;}
</style>
<path class="st0" d="M649.4,283.9c-19.9-3.4-39.7-6.9-59.6-10.2c-2.6-0.4-3.7-1.4-4.3-3.9c-6.2-26-16.3-50.4-30.2-73.1
	c-1.6-2.5-1.5-4.2,0.2-6.6c11.8-16.5,23.5-33.2,35.2-49.8c5.4-7.6,4.8-13.9-1.8-20.5c-14.9-14.9-29.8-29.8-44.7-44.7
	c-7.2-7.2-13.1-7.6-21.5-1.7c-16.4,11.5-32.8,23-49.1,34.7c-2.4,1.7-4,1.9-6.6,0.3c-22.8-13.9-47.2-24-73.1-30.3
	c-2.5-0.6-3.6-1.6-4-4.2c-3.3-20-6.9-40-10.3-60.1C377.9,4.3,373,0,363.6,0c-21.1,0-42.2,0-63.2,0c-10.1,0-14.8,4.1-16.4,14
	c-3.4,19.9-6.9,39.7-10.2,59.6c-0.4,2.6-1.4,3.7-4,4.3c-26,6.2-50.4,16.3-73.1,30.2c-2.6,1.6-4.2,1.5-6.6-0.2
	c-16.5-11.8-33.2-23.5-49.8-35.2c-7.6-5.4-13.9-4.8-20.5,1.8C104.8,89.4,90,104.2,75.2,119c-7.5,7.5-8,13.4-2,21.9
	c11.5,16.4,23,32.8,34.7,49.1c1.7,2.4,1.9,4,0.3,6.6c-13.9,22.8-24,47.2-30.3,73.1c-0.6,2.5-1.6,3.6-4.2,4c-20,3.3-40,6.9-60.1,10.3
	C4.3,285.5,0,290.4,0,299.8c0,21.1,0,42.2,0,63.2c0,10.1,4.1,14.8,14,16.4c19.9,3.4,39.7,6.9,59.6,10.2c2.6,0.4,3.7,1.4,4.3,4
	c6.2,26,16.3,50.4,30.2,73.1c1.6,2.6,1.5,4.2-0.2,6.6c-11.7,16.4-23.3,32.9-34.9,49.4c-5.7,8.1-5.2,14.2,1.9,21.2
	c14.8,14.8,29.6,29.6,44.4,44.4c7.2,7.2,13.1,7.6,21.6,1.7c16.4-11.5,32.8-23,49.1-34.7c2.4-1.7,4-1.9,6.6-0.3
	c22.8,13.9,47.2,24,73.1,30.3c2.5,0.6,3.6,1.6,4,4.2c3.3,20.2,6.9,40.3,10.3,60.5c1.5,8.8,6.5,13.2,15.4,13.2c10.8,0,21.5,0,32.3,0
	c10.5,0,20.9,0,31.4,0c10.1,0,14.8-4.1,16.5-14c3.4-19.9,6.9-39.7,10.2-59.6c0.4-2.6,1.4-3.7,3.9-4.3c26-6.2,50.4-16.3,73.1-30.2
	c2.5-1.6,4.2-1.5,6.6,0.2c16.4,11.7,32.9,23.3,49.5,34.9c8.1,5.7,14.2,5.2,21.2-1.8c14.8-14.8,29.6-29.6,44.4-44.4
	c7.2-7.2,7.6-13.1,1.7-21.5c-11.5-16.4-23-32.8-34.7-49.1c-1.7-2.4-1.9-4-0.3-6.6c13.9-22.8,24-47.2,30.3-73.1
	c0.6-2.5,1.6-3.6,4.2-4c20-3.3,40-6.9,60.1-10.3c9.4-1.6,13.6-6.4,13.6-15.9c0-21.1,0-42.2,0-63.2
	C663.4,290.2,659.3,285.6,649.4,283.9z M485.2,331.5c0.1,84.6-68.9,153.7-153.5,153.7c-84.6,0-153.7-69-153.6-153.6
	c0.1-84.5,68.7-153.2,153.3-153.5C416,177.9,485.1,246.9,485.2,331.5z"/>
<path class="st0" d="M304.3,358c1.1-1.7,1.8-3.3,2.9-4.4c25.3-25.4,50.6-50.7,75.9-76c8.5-8.5,21.2-5.6,24.1,5.4
	c1.5,5.7-0.6,10.3-4.7,14.3c-17.7,17.7-35.4,35.4-53.1,53.1c-11.6,11.6-23.1,23.1-34.7,34.7c-7.4,7.3-15,7.4-22.3,0
	c-10.5-10.5-21.1-21-31.6-31.6c-6.5-6.6-6.9-15-1.1-20.7c5.8-5.7,14.2-5.3,20.8,1.3C288.2,341.8,295.7,349.4,304.3,358z"/>
</svg>
