<?xml version="1.0" encoding="utf-8"?>
<!-- Generator: Adobe Illustrator 24.0.0, SVG Export Plug-In . SVG Version: 6.00 Build 0)  -->
<svg version="1.1" id="Layer_1" xmlns="http://www.w3.org/2000/svg" xmlns:xlink="http://www.w3.org/1999/xlink" x="0px" y="0px"
	 viewBox="0 0 640 640" style="enable-background:new 0 0 640 640;" xml:space="preserve">
<style type="text/css">
	.st0{fill:#666666;}
</style>
<path class="st0" d="M462.2,248.9c0-98.2-103.4-177.8-231.1-177.8S0,150.7,0,248.9c0,38.1,15.7,73.2,42.2,102.2
	c-14.9,33.6-39.4,60.2-39.8,60.6c-2.4,2.6-3.1,6.3-1.7,9.7s4.6,5.3,8.1,5.3c40.7,0,74.3-13.7,98.6-27.8
	c35.8,17.4,78.1,27.8,123.7,27.8C358.8,426.7,462.2,347.1,462.2,248.9z M597.8,493.3c26.6-28.9,42.2-64.1,42.2-102.2
	c0-74.3-59.4-138-143.7-164.6c1,7.3,1.4,14.8,1.4,22.3c0,117.7-119.7,213.3-266.7,213.3c-12,0-23.7-0.9-35.2-2.1
	c35,63.9,117.2,108.8,213,108.8c45.6,0,87.9-10.2,123.7-27.8c24.2,14.1,57.9,27.8,98.6,27.8c3.6,0,6.8-2.1,8.1-5.3
	c1.4-3.2,0.8-7-1.7-9.7C637.2,553.6,612.7,527,597.8,493.3z"/>
</svg>
