<?xml version="1.0" encoding="utf-8"?>
<!-- Generator: Adobe Illustrator 24.0.0, SVG Export Plug-In . SVG Version: 6.00 Build 0)  -->
<svg version="1.1" id="Layer_1" xmlns="http://www.w3.org/2000/svg" xmlns:xlink="http://www.w3.org/1999/xlink" x="0px" y="0px"
	 viewBox="0 0 640 640" style="enable-background:new 0 0 640 640;" xml:space="preserve">
<style type="text/css">
	.st0{fill:#666666;}
</style>
<path class="st0" d="M208,416c-2.4,0-4.8,0.4-7.1,1.1c-13,4.2-26.6,6.9-40.9,6.9s-28-2.7-40.9-6.9c-2.3-0.7-4.7-1.1-7.1-1.1
	C49.9,416-0.3,466.5,0,528.6C0.1,554.9,21.7,576,48,576h224c26.3,0,47.9-21.1,48-47.4C320.3,466.5,270.1,416,208,416z M160,384
	c53,0,96-43,96-96s-43-96-96-96s-96,43-96,96S107,384,160,384z M592,64H208c-26.5,0-48,22.3-48,49.6V160c23.4,0,45.1,6.8,64,17.8
	V128h352v288h-64v-64H384v64h-76.2c19.1,16.7,33.1,38.7,39.7,64H592c26.5,0,48-22.3,48-49.6V113.6C640,86.3,618.5,64,592,64z"/>
</svg>
